{"title":"Ballistic Ecks vs. Sever (2002) DVDRip Dual Audio [Hindi-Eng] by","uid":6929160,"size":613674786,"categoryP":"video","categoryS":"movies","magnet":"?xt=urn:btih:2ebab62cc5e6f25facd0c9ffdaccf351327e1119&amp;dn=Ballistic+Ecks+vs.+Sever+%282002%29+DVDRip+Dual+Audio+%5BHindi-Eng%5D+by&amp;tr=udp%3A%2F%2Ftracker.openbittorrent.com%3A80&amp;tr=udp%3A%2F%2Fopen.demonii.com%3A1337&amp;tr=udp%3A%2F%2Ftracker.coppersurfer.tk%3A6969&amp;tr=udp%3A%2F%2Fexodus.desync.com%3A6969","seeders":0,"leechers":1,"uploader":"HDvideos","files":-1,"time":1325598640,"description":"mastitorrents.com\n &lt;a href=&quot;\nhttp://mastitorrents.com/forums/index.php&quot; rel=&quot;nofollow&quot; target=&quot;_NEW&quot;&gt;\nhttp://mastitorrents.com/forums/index.php&lt;/a&gt;\n &lt;a href=&quot;\nhttp://thepiratebay.se/user/HDvideos/0/7&quot; rel=&quot;nofollow&quot; target=&quot;_NEW&quot;&gt;\nhttp://thepiratebay.se/user/HDvideos/0/7&lt;/a&gt;\n\nBallistic Ecks vs. Sever (2002) DVDRip Dual Audio [Hindi-Eng] by imkhan -=[TDT]=-@Mastitorrents\n\nFormat : Matroska\nFile size : 585 MiB\nDuration : 1h 31mn\nOverall bit rate : 894 Kbps\nMovie name : Ballistic Ecks vs. Sever 2002 DVDRip Dual Audio [Hin-Eng] by imkhan -=[TDT]=-\nEncoded date : UTC 2012-01-02 13:32:51\nWriting application : mkvmerge v4.7.0 ('Just Like You Imagined') built on Apr 21 2011 01:13:14\nWriting library : libebml v1.2.0 + libmatroska v1.1.0\n\nVideo\nID : 1\nFormat : AVC\nFormat/Info : Advanced Video Codec\nFormat profile : &lt;a class=&quot;__cf_email__&quot; href=&quot;/cdn-cgi/l/email-protection&quot; data-cfemail=&quot;c68eafa1ae868af2e8f6&quot;&gt;[email&amp;#160;protected]&lt;/a&gt;&lt;script cf-hash='f9e31' type=&quot;text/javascript&quot;&gt;\n/* &lt;![CDATA[ */!function(){try{var t=&quot;currentScript&quot;in document?document.currentScript:function(){for(var t=document.getElementsByTagName(&quot;script&quot;),e=t.length;e--;)if(t[e].getAttribute(&quot;cf-hash&quot;))return t[e]}();if(t&amp;&amp;t.previousSibling){var e,r,n,i,c=t.previousSibling,a=c.getAttribute(&quot;data-cfemail&quot;);if(a){for(e=&quot;&quot;,r=parseInt(a.substr(0,2),16),n=2;a.length-n;n+=2)i=parseInt(a.substr(n,2),16)^r,e+=String.fromCharCode(i);e=document.createTextNode(e),c.parentNode.replaceChild(e,c)}}}catch(u){}}();/* ]]&gt; */&lt;/script&gt;\nFormat settings, CABAC : Yes\nFormat settings, ReFrames : 3 frames\nMuxing mode : Container profile=&lt;a class=&quot;__cf_email__&quot; href=&quot;/cdn-cgi/l/email-protection&quot; data-cfemail=&quot;e0b58e8b8e8f978ea0d4ced0&quot;&gt;[email&amp;#160;protected]&lt;/a&gt;&lt;script cf-hash='f9e31' type=&quot;text/javascript&quot;&gt;\n/* &lt;![CDATA[ */!function(){try{var t=&quot;currentScript&quot;in document?document.currentScript:function(){for(var t=document.getElementsByTagName(&quot;script&quot;),e=t.length;e--;)if(t[e].getAttribute(&quot;cf-hash&quot;))return t[e]}();if(t&amp;&amp;t.previousSibling){var e,r,n,i,c=t.previousSibling,a=c.getAttribute(&quot;data-cfemail&quot;);if(a){for(e=&quot;&quot;,r=parseInt(a.substr(0,2),16),n=2;a.length-n;n+=2)i=parseInt(a.substr(n,2),16)^r,e+=String.fromCharCode(i);e=document.createTextNode(e),c.parentNode.replaceChild(e,c)}}}catch(u){}}();/* ]]&gt; */&lt;/script&gt;\nCodec ID : V_MPEG4/ISO/AVC\nDuration : 1h 31mn\nBit rate : 652 Kbps\nWidth : 832 pixels\nHeight : 380 pixels\nDisplay aspect ratio : 2.2:1\nFrame rate : 23.976 fps\nResolution : 24 bits\nColorimetry : 4:2:0\nScan type : Progressive\nBits/(Pixel*Frame) : 0.086\nStream size : 426 MiB (73%)\nWriting library : x264 core 104 r1683 62997d6\nEncoding settings : cabac=1 / ref=3 / deblock=1:0:0 / analyse=0x3:0x133 / me=umh / subme=7 / psy=1 / psy_rd=1.00:0.00 / mixed_ref=1 / me_range=16 / chroma_me=1 / trellis=1 / 8x8dct=1 / cqm=0 / deadzone=21,11 / fast_pskip=1 / chroma_qp_offset=-2 / threads=6 / sliced_threads=0 / nr=0 / decimate=1 / interlaced=0 / constrained_intra=0 / bframes=3 / b_pyramid=0 / b_adapt=1 / b_bias=0 / direct=1 / weightb=1 / open_gop=0 / weightp=2 / keyint=240 / keyint_min=24 / scenecut=40 / intra_refresh=0 / rc_lookahead=40 / rc=crf / mbtree=1 / crf=22.0 / qcomp=0.60 / qpmin=10 / qpmax=51 / qpstep=4 / vbv_maxrate=850 / vbv_bufsize=750 / crf_max=0.0 / ip_ratio=1.40 / aq=1:1.00 / nal_hrd=none\nLanguage : Hindi\n\nAudio #1\nID : 2\nFormat : MPEG Audio\nFormat version : Version 1\nFormat profile : Layer 3\nCodec ID : A_MPEG/L3\nCodec ID/Hint : MP3\nDuration : 1h 31mn\nBit rate mode : Constant\nBit rate : 128 Kbps\nChannel(s) : 2 channels\nSampling rate : 44.1 KHz\nResolution : 16 bits\nStream size : 83.8 MiB (14%)\nLanguage : Hindi\n\nAudio #2\nID : 3\nFormat : Vorbis\nFormat settings, Floor : 1\nCodec ID : A_VORBIS\nDuration : 1h 31mn\nBit rate mode : Constant\nBit rate : 96.0 Kbps\nChannel(s) : 2 channels\nSampling rate : 48.0 KHz\nStream size : 62.9 MiB (11%)","torrent":{"xt":"urn:btih:2ebab62cc5e6f25facd0c9ffdaccf351327e1119","amp;dn":"Ballistic+Ecks+vs.+Sever+%282002%29+DVDRip+Dual+Audio+%5BHindi-Eng%5D+by","amp;tr":["udp%3A%2F%2Ftracker.openbittorrent.com%3A80","udp%3A%2F%2Fopen.demonii.com%3A1337","udp%3A%2F%2Ftracker.coppersurfer.tk%3A6969","udp%3A%2F%2Fexodus.desync.com%3A6969"],"infoHash":"2ebab62cc5e6f25facd0c9ffdaccf351327e1119","infoHashBuffer":{"type":"Buffer","data":[46,186,182,44,197,230,242,95,172,208,201,255,218,204,243,81,50,126,17,25]},"announce":[],"urlList":[]}}